<svg width="920" height="161" viewBox="0 0 920 161" fill="none" xmlns="http://www.w3.org/2000/svg">
<path d="M1 40C1 18.4609 18.4609 1 40 1H880C901.539 1 919 18.4609 919 40V121C919 142.539 901.539 160 880 160H40C18.4609 160 1 142.539 1 121V40Z" fill="#3BEF63"/>
<path d="M1 40C1 18.4609 18.4609 1 40 1H880C901.539 1 919 18.4609 919 40V121C919 142.539 901.539 160 880 160H40C18.4609 160 1 142.539 1 121V40Z" fill="url(#paint0_linear_1635_3174)" style="mix-blend-mode:soft-light"/>
<path d="M1 40C1 18.4609 18.4609 1 40 1H880C901.539 1 919 18.4609 919 40V121C919 142.539 901.539 160 880 160H40C18.4609 160 1 142.539 1 121V40Z" stroke="#0EA630" stroke-width="2"/>
<path d="M52.672 97V52.2H74.304C78.016 52.2 80.9493 52.7973 83.104 53.992C85.28 55.1653 86.8267 56.68 87.744 58.536C88.6827 60.392 89.152 62.3333 89.152 64.36C89.152 66.344 88.8 68.168 88.096 69.832C87.4133 71.496 86.1227 72.7653 84.224 73.64C85.7813 74.2373 87.0293 75.0907 87.968 76.2C88.9067 77.3093 89.5787 78.5253 89.984 79.848C90.4107 81.1493 90.624 82.3867 90.624 83.56C90.624 85.1813 90.3467 86.792 89.792 88.392C89.2373 89.992 88.352 91.4427 87.136 92.744C85.9413 94.024 84.352 95.0587 82.368 95.848C80.4053 96.616 77.9947 97 75.136 97H52.672ZM62.784 87.464H75.584C76.8 87.464 77.76 87.24 78.464 86.792C79.168 86.344 79.6587 85.8 79.936 85.16C80.2347 84.52 80.384 83.9013 80.384 83.304C80.384 82.5573 80.2133 81.832 79.872 81.128C79.552 80.4027 78.9227 79.8053 77.984 79.336C77.0453 78.8667 75.6693 78.632 73.856 78.632H62.784V87.464ZM62.784 69.544H73.344C75.264 69.544 76.6613 69.192 77.536 68.488C78.4107 67.7627 78.848 66.792 78.848 65.576C78.848 64.9573 78.7413 64.3493 78.528 63.752C78.3147 63.1547 77.888 62.664 77.248 62.28C76.608 61.8747 75.648 61.672 74.368 61.672H62.784V69.544ZM100.607 97V52.2H133.311V61.8H110.719V69.096H123.135V78.696H110.719V87.336H134.591V97H100.607ZM154.275 97V61.928H141.411V52.2H177.315V61.928H164.387V97H154.275ZM200.689 97.768C199.089 97.768 197.564 97.4267 196.113 96.744C194.663 96.0613 193.5 95.1653 192.625 94.056L192.113 97H186.801L194.545 52.904L200.305 50.792L197.489 66.856C198.641 65.7893 199.943 64.968 201.393 64.392C202.844 63.816 204.316 63.528 205.809 63.528C207.921 63.528 209.777 64.0827 211.377 65.192C212.999 66.28 214.257 67.816 215.153 69.8C216.049 71.7627 216.497 74.0453 216.497 76.648C216.497 80.8293 215.836 84.5093 214.513 87.688C213.191 90.8453 211.335 93.32 208.945 95.112C206.577 96.8827 203.825 97.768 200.689 97.768ZM200.305 92.712C202.46 92.712 204.337 92.072 205.937 90.792C207.559 89.4907 208.817 87.6667 209.713 85.32C210.609 82.9733 211.057 80.232 211.057 77.096C211.057 74.408 210.46 72.3067 209.265 70.792C208.092 69.2773 206.449 68.52 204.337 68.52C202.929 68.52 201.5 68.9147 200.049 69.704C198.599 70.472 197.404 71.4853 196.465 72.744L193.649 88.488C194.332 89.7893 195.26 90.824 196.433 91.592C197.607 92.3387 198.897 92.712 200.305 92.712ZM234.277 97.768C230.544 97.768 227.61 96.5733 225.477 94.184C223.365 91.7733 222.309 88.4453 222.309 84.2C222.309 80.2533 223.034 76.7227 224.485 73.608C225.957 70.4933 227.952 68.04 230.469 66.248C233.008 64.4347 235.877 63.528 239.077 63.528C242.704 63.528 245.584 64.744 247.717 67.176C249.85 69.608 250.917 72.872 250.917 76.968C250.917 80.9573 250.192 84.52 248.741 87.656C247.29 90.792 245.306 93.2667 242.789 95.08C240.293 96.872 237.456 97.768 234.277 97.768ZM234.405 92.712C236.517 92.712 238.405 92.04 240.069 90.696C241.754 89.352 243.077 87.528 244.037 85.224C244.997 82.8987 245.477 80.2747 245.477 77.352C245.477 74.6 244.88 72.4453 243.685 70.888C242.49 69.3093 240.848 68.52 238.757 68.52C236.666 68.52 234.789 69.192 233.125 70.536C231.461 71.88 230.149 73.7147 229.189 76.04C228.229 78.344 227.749 80.9573 227.749 83.88C227.749 86.632 228.336 88.7973 229.509 90.376C230.704 91.9333 232.336 92.712 234.405 92.712ZM263.493 97.768C261.296 97.768 259.728 97.0213 258.789 95.528C257.851 94.0133 257.627 91.8373 258.117 89L261.573 69.16H256.261L257.157 64.296H262.405L264.453 52.904L270.213 50.792L267.845 64.296H275.525L274.693 69.16H267.013L263.685 87.784C263.344 89.704 263.333 91.016 263.653 91.72C263.973 92.424 264.752 92.776 265.989 92.776C266.757 92.776 267.525 92.6587 268.293 92.424C269.061 92.168 269.957 91.752 270.981 91.176L269.573 96.424C267.909 97.32 265.883 97.768 263.493 97.768Z" fill="black"/>
<path d="M525.593 62.242C524.405 62.242 523.4 62.0147 522.579 61.56C521.758 61.1053 521.094 60.4967 520.588 59.734C520.089 58.964 519.726 58.1097 519.499 57.171C519.272 56.225 519.158 55.268 519.158 54.3C519.158 53.3687 519.275 52.4337 519.51 51.495C519.745 50.5563 520.115 49.6983 520.621 48.921C521.127 48.1437 521.791 47.5203 522.612 47.051C523.433 46.5743 524.427 46.336 525.593 46.336C526.554 46.336 527.382 46.49 528.079 46.798C528.776 47.106 529.351 47.502 529.806 47.986C530.268 48.47 530.616 48.9797 530.851 49.515L528.585 50.593C528.336 50.2263 528.075 49.9037 527.804 49.625C527.533 49.3463 527.217 49.13 526.858 48.976C526.506 48.822 526.084 48.745 525.593 48.745C524.882 48.745 524.28 48.9137 523.789 49.251C523.298 49.5883 522.905 50.032 522.612 50.582C522.326 51.132 522.117 51.7333 521.985 52.386C521.853 53.0313 521.787 53.6693 521.787 54.3C521.787 54.9673 521.86 55.631 522.007 56.291C522.154 56.9437 522.381 57.5377 522.689 58.073C522.997 58.601 523.389 59.0263 523.866 59.349C524.35 59.6643 524.926 59.822 525.593 59.822C526.312 59.822 526.906 59.6423 527.375 59.283C527.852 58.9163 528.266 58.4433 528.618 57.864L530.939 58.733C530.631 59.4003 530.235 59.998 529.751 60.526C529.267 61.054 528.68 61.472 527.991 61.78C527.309 62.088 526.51 62.242 525.593 62.242ZM533.696 62V46.6H540.395C541.656 46.6 542.653 46.82 543.387 47.26C544.12 47.7 544.641 48.2757 544.949 48.987C545.264 49.691 545.422 50.439 545.422 51.231C545.422 51.825 545.308 52.419 545.081 53.013C544.853 53.607 544.498 54.1387 544.014 54.608C543.537 55.07 542.925 55.4037 542.177 55.609L545.301 62H542.452L539.449 55.906H536.237V62H533.696ZM536.237 53.53H540.439C541.033 53.53 541.502 53.42 541.847 53.2C542.199 52.98 542.448 52.6977 542.595 52.353C542.741 52.0083 542.815 51.6453 542.815 51.264C542.815 50.912 542.745 50.5637 542.606 50.219C542.474 49.867 542.232 49.5737 541.88 49.339C541.535 49.097 541.055 48.976 540.439 48.976H536.237V53.53ZM548.692 62V46.6H558.68V48.998H551.233V52.848H555.798V55.246H551.233V59.58H559.142V62H548.692ZM561.298 62L567.029 46.6H569.427L575.158 62H572.463L571.22 58.568H565.247L564.026 62H561.298ZM566.061 56.269H570.384L568.69 51.616C568.646 51.4913 568.595 51.3447 568.536 51.176C568.478 51.0073 568.419 50.8423 568.36 50.681C568.302 50.5123 568.258 50.362 568.228 50.23C568.192 50.362 568.144 50.5123 568.085 50.681C568.034 50.8423 567.979 51.0073 567.92 51.176C567.862 51.3447 567.81 51.4913 567.766 51.616L566.061 56.269ZM578.848 62V49.031H574.503V46.6H585.734V49.031H581.389V62H578.848ZM588.545 62V46.6H598.533V48.998H591.086V52.848H595.651V55.246H591.086V59.58H598.995V62H588.545ZM601.995 62V46.6H606.857C608.191 46.6 609.321 46.82 610.245 47.26C611.176 47.6927 611.928 48.2793 612.5 49.02C613.079 49.7533 613.501 50.5783 613.765 51.495C614.029 52.4117 614.161 53.3467 614.161 54.3C614.161 55.18 614.036 56.071 613.787 56.973C613.537 57.875 613.13 58.7073 612.566 59.47C612.001 60.2327 611.246 60.845 610.3 61.307C609.354 61.769 608.177 62 606.769 62H601.995ZM604.536 59.602H607.044C607.887 59.602 608.595 59.448 609.167 59.14C609.739 58.8247 610.197 58.4067 610.542 57.886C610.894 57.3653 611.143 56.7933 611.29 56.17C611.444 55.5467 611.521 54.9233 611.521 54.3C611.521 53.64 611.44 52.9947 611.279 52.364C611.117 51.726 610.864 51.154 610.52 50.648C610.182 50.142 609.746 49.7387 609.211 49.438C608.675 49.13 608.034 48.976 607.286 48.976H604.536V59.602ZM622.813 62V46.6H629.061C630.3 46.6 631.276 46.8017 631.987 47.205C632.706 47.601 633.215 48.1143 633.516 48.745C633.824 49.3683 633.978 50.0247 633.978 50.714C633.978 51.4107 633.809 52.045 633.472 52.617C633.142 53.1817 632.632 53.6143 631.943 53.915C632.515 54.1057 632.992 54.3843 633.373 54.751C633.754 55.1177 634.04 55.5393 634.231 56.016C634.422 56.4927 634.517 56.9877 634.517 57.501C634.517 58.0363 634.425 58.5717 634.242 59.107C634.066 59.635 633.78 60.119 633.384 60.559C632.988 60.9917 632.46 61.34 631.8 61.604C631.147 61.868 630.344 62 629.391 62H622.813ZM625.354 59.635H629.578C630.201 59.635 630.685 59.5287 631.03 59.316C631.382 59.1033 631.624 58.8393 631.756 58.524C631.895 58.2013 631.965 57.875 631.965 57.545C631.965 57.149 631.884 56.7713 631.723 56.412C631.562 56.0527 631.261 55.763 630.821 55.543C630.381 55.3157 629.747 55.202 628.918 55.202H625.354V59.635ZM625.354 52.903H628.709C629.626 52.903 630.308 52.7197 630.755 52.353C631.202 51.9863 631.426 51.4987 631.426 50.89C631.426 50.582 631.367 50.2777 631.25 49.977C631.14 49.6763 630.92 49.4307 630.59 49.24C630.26 49.042 629.776 48.943 629.138 48.943H625.354V52.903ZM640.378 62V55.972L634.867 46.6H637.727L641.632 53.376L645.548 46.6H648.386L642.897 55.95V62H640.378Z" fill="black" fill-opacity="0.4"/>
<path d="M715.104 62V46.6H721.352C722.591 46.6 723.567 46.8017 724.278 47.205C724.997 47.601 725.506 48.1143 725.807 48.745C726.115 49.3683 726.269 50.0247 726.269 50.714C726.269 51.4107 726.1 52.045 725.763 52.617C725.433 53.1817 724.923 53.6143 724.234 53.915C724.806 54.1057 725.283 54.3843 725.664 54.751C726.045 55.1177 726.331 55.5393 726.522 56.016C726.713 56.4927 726.808 56.9877 726.808 57.501C726.808 58.0363 726.716 58.5717 726.533 59.107C726.357 59.635 726.071 60.119 725.675 60.559C725.279 60.9917 724.751 61.34 724.091 61.604C723.438 61.868 722.635 62 721.682 62H715.104ZM717.645 59.635H721.869C722.492 59.635 722.976 59.5287 723.321 59.316C723.673 59.1033 723.915 58.8393 724.047 58.524C724.186 58.2013 724.256 57.875 724.256 57.545C724.256 57.149 724.175 56.7713 724.014 56.412C723.853 56.0527 723.552 55.763 723.112 55.543C722.672 55.3157 722.038 55.202 721.209 55.202H717.645V59.635ZM717.645 52.903H721C721.917 52.903 722.599 52.7197 723.046 52.353C723.493 51.9863 723.717 51.4987 723.717 50.89C723.717 50.582 723.658 50.2777 723.541 49.977C723.431 49.6763 723.211 49.4307 722.881 49.24C722.551 49.042 722.067 48.943 721.429 48.943H717.645V52.903ZM729.928 62V46.6H739.916V48.998H732.469V52.848H737.034V55.246H732.469V59.58H740.378V62H729.928ZM746.829 62V49.031H742.484V46.6H753.715V49.031H749.37V62H746.829ZM759.722 62L765.453 46.6H767.851L773.582 62H770.887L769.644 58.568H763.671L762.45 62H759.722ZM764.485 56.269H768.808L767.114 51.616C767.07 51.4913 767.019 51.3447 766.96 51.176C766.902 51.0073 766.843 50.8423 766.784 50.681C766.726 50.5123 766.682 50.362 766.652 50.23C766.616 50.362 766.568 50.5123 766.509 50.681C766.458 50.8423 766.403 51.0073 766.344 51.176C766.286 51.3447 766.234 51.4913 766.19 51.616L764.485 56.269ZM783.007 62.264L778.981 53.31C778.915 53.1413 778.842 52.958 778.761 52.76C778.688 52.562 778.618 52.375 778.552 52.199C778.567 52.3457 778.578 52.529 778.585 52.749C778.592 52.9617 778.596 53.1487 778.596 53.31V62H776.055V46.6H778.552L782.655 55.884C782.728 56.0453 782.794 56.2067 782.853 56.368C782.919 56.5293 782.981 56.698 783.04 56.874C783.099 56.7053 783.157 56.5403 783.216 56.379C783.282 56.2103 783.352 56.0453 783.425 55.884L787.561 46.6H789.948V62H787.407V53.31C787.407 53.134 787.411 52.936 787.418 52.716C787.425 52.4887 787.433 52.3127 787.44 52.188C787.374 52.3493 787.297 52.5363 787.209 52.749C787.128 52.9617 787.055 53.1487 786.989 53.31L783.007 62.264ZM799.776 62.264C798.558 62.264 797.524 62.033 796.674 61.571C795.823 61.1017 795.137 60.482 794.617 59.712C794.096 58.9347 793.715 58.0767 793.473 57.138C793.238 56.1993 793.121 55.2533 793.121 54.3C793.121 53.3467 793.238 52.4007 793.473 51.462C793.715 50.5233 794.096 49.669 794.617 48.899C795.137 48.1217 795.823 47.502 796.674 47.04C797.524 46.5707 798.558 46.336 799.776 46.336C801.008 46.336 802.045 46.5707 802.889 47.04C803.739 47.502 804.425 48.1217 804.946 48.899C805.466 49.669 805.844 50.5233 806.079 51.462C806.313 52.4007 806.431 53.3467 806.431 54.3C806.431 55.2533 806.313 56.1993 806.079 57.138C805.844 58.0767 805.466 58.9347 804.946 59.712C804.425 60.482 803.739 61.1017 802.889 61.571C802.045 62.033 801.008 62.264 799.776 62.264ZM799.776 59.833C800.524 59.833 801.151 59.6643 801.657 59.327C802.17 58.9897 802.584 58.546 802.9 57.996C803.215 57.4387 803.442 56.8373 803.582 56.192C803.721 55.5467 803.791 54.916 803.791 54.3C803.791 53.6327 803.721 52.9727 803.582 52.32C803.45 51.6673 803.226 51.0697 802.911 50.527C802.603 49.9843 802.192 49.5517 801.679 49.229C801.165 48.9063 800.531 48.745 799.776 48.745C799.028 48.745 798.397 48.9173 797.884 49.262C797.37 49.5993 796.956 50.043 796.641 50.593C796.325 51.143 796.098 51.7443 795.959 52.397C795.819 53.0497 795.75 53.684 795.75 54.3C795.75 54.96 795.819 55.6163 795.959 56.269C796.105 56.9217 796.333 57.5193 796.641 58.062C796.956 58.5973 797.37 59.0263 797.884 59.349C798.397 59.6717 799.028 59.833 799.776 59.833ZM815.486 62.264C814.203 62.264 813.121 62.0257 812.241 61.549C811.361 61.0723 810.694 60.3793 810.239 59.47C809.792 58.5607 809.568 57.4533 809.568 56.148V46.6H812.109V56.148C812.109 57.38 812.373 58.304 812.901 58.92C813.437 59.5287 814.298 59.833 815.486 59.833C816.242 59.833 816.869 59.7047 817.367 59.448C817.873 59.1913 818.251 58.7953 818.5 58.26C818.75 57.7173 818.874 57.0133 818.874 56.148V46.6H821.404V56.148C821.404 57.2113 821.258 58.128 820.964 58.898C820.678 59.668 820.271 60.3023 819.743 60.801C819.215 61.2997 818.588 61.67 817.862 61.912C817.144 62.1467 816.352 62.264 815.486 62.264ZM825.168 62V46.6H827.588L833.902 56.302C833.998 56.4487 834.104 56.6283 834.221 56.841C834.346 57.0463 834.452 57.248 834.54 57.446C834.533 57.27 834.522 57.072 834.507 56.852C834.5 56.632 834.496 56.4487 834.496 56.302V46.6H837.026V62H834.705L828.27 52.254C828.182 52.1073 828.076 51.9277 827.951 51.715C827.834 51.5023 827.728 51.308 827.632 51.132C827.662 51.308 827.676 51.4987 827.676 51.704C827.684 51.902 827.687 52.0853 827.687 52.254V62H825.168ZM844.175 62V49.031H839.83V46.6H851.061V49.031H846.716V62H844.175Z" fill="black" fill-opacity="0.4"/>
<defs>
<linearGradient id="paint0_linear_1635_3174" x1="920" y1="6.97769e-06" x2="885.181" y2="273.636" gradientUnits="userSpaceOnUse">
<stop stop-color="white" stop-opacity="0.24"/>
<stop offset="0.17" stop-color="white" stop-opacity="0.32"/>
<stop offset="0.245" stop-color="white" stop-opacity="0.64"/>
<stop offset="0.31" stop-color="white" stop-opacity="0.24"/>
<stop offset="0.533049" stop-color="white" stop-opacity="0.12"/>
<stop offset="0.62" stop-color="white" stop-opacity="0.56"/>
<stop offset="0.815" stop-color="white" stop-opacity="0.1"/>
<stop offset="1" stop-color="white" stop-opacity="0.24"/>
</linearGradient>
</defs>
</svg>
